<svg xmlns="http://www.w3.org/2000/svg" width="64" height="64" viewBox="0 0 64 64" fill="none">
  <defs>
    <linearGradient id="g" x1="0" y1="0" x2="64" y2="64" gradientUnits="userSpaceOnUse">
      <stop stop-color="#f2b8c6"/>
      <stop offset="0.5" stop-color="#e6a0b3"/>
      <stop offset="1" stop-color="#d8b478"/>
    </linearGradient>
  </defs>
  <rect width="64" height="64" rx="16" fill="#fbf4f1"/>
  <path d="M32 47s-13-7.7-13-17.2c0-4.6 3.6-8.1 8-8.1 2.8 0 5 1.4 5 3.8 0-2.4 2.2-3.8 5-3.8 4.4 0 8 3.5 8 8.1C45 39.3 32 47 32 47z" fill="url(#g)"/>
  <path d="M48 14l1.4 3.6L53 19l-3.6 1.4L48 24l-1.4-3.6L43 19l3.6-1.4L48 14z" fill="#d8b478"/>
  <path d="M16 40l1 2.6L19.6 44l-2.6 1L16 47.6 15 45l-2.6-1L15 42.6 16 40z" fill="#e6a0b3"/>
</svg>
